<svg xmlns="http://www.w3.org/2000/svg" version="1.0" preserveAspectRatio="xMidYMid meet" viewBox="30 95 247.1 81.82">
<metadata>
Created by potrace 1.10, written by Peter Selinger 2001-2011
</metadata>
<g transform="translate(0.000000,300.000000) scale(0.100000,-0.100000)" fill="#ffffff" stroke="none">
<path d="M300 1935 l0 -115 411 0 410 0 -18 31 c-26 44 -112 123 -162 149 -79 40 -160 50 -408 50 l-233 0 0 -115z"/>
<path d="M2445 2037 c-63 -17 -109 -40 -162 -84 -38 -30 -103 -111 -103 -127 0 -3 133 -6 295 -6 l296 0 -3 102 -3 102 -35 8 c-72 15 -234 18 -285 5z"/>
<path d="M1240 1920 l0 -100 400 0 c441 0 415 -4 387 63 -21 48 -88 104 -148 121 -42 13 -110 16 -346 16 l-293 0 0 -100z"/>
<path d="M300 1505 l0 -255 120 0 120 0 0 255 0 255 -120 0 -120 0 0 -255z"/>
<path d="M880 1755 c0 -4 7 -20 16 -37 25 -49 16 -146 -19 -191 -40 -53 -98 -71 -202 -64 l-85 6 0 -110 c0 -95 2 -111 18 -117 9 -4 71 -7 137 -7 111 0 125 2 183 29 82 38 171 131 203 213 18 45 23 79 23 153 1 52 -2 103 -6 113 -7 15 -23 17 -138 17 -71 0 -130 -2 -130 -5z"/>
<path d="M1240 1500 l0 -250 125 0 125 0 0 250 0 250 -125 0 -125 0 0 -250z"/>
<path d="M1690 1731 c-138 -56 -132 -140 15 -199 47 -18 71 -33 73 -46 5 -24 -16 -37 -53 -31 -16 2 -65 7 -107 10 l-78 7 0 -111 c0 -71 4 -112 11 -117 21 -13 282 -17 325 -5 90 24 145 84 164 178 15 71 2 119 -45 172 l-35 38 26 24 c27 25 54 70 54 89 0 6 -52 10 -152 9 -124 0 -162 -4 -198 -18z"/>
<path d="M2147 1743 c-13 -23 -17 -118 -7 -174 16 -89 62 -170 133 -235 94 -84 142 -99 317 -99 80 0 153 4 163 7 15 6 17 22 17 117 l0 110 -144 3 c-157 3 -173 9 -220 71 -27 36 -33 125 -12 168 9 17 16 34 16 36 0 7 -259 3 -263 -4z"/>
</g>
</svg>