<svg xmlns="http://www.w3.org/2000/svg" width="43" height="42" fill="none" xmlns:v="https://vecta.io/nano"><path d="M30.893 19.857l3.663-3.663-8.75-8.75-3.663 3.663-9.66-9.637C10.663-.35 7.7-.35 5.88 1.47L1.447 5.903c-1.82 1.82-1.82 4.783 0 6.603l9.637 9.637L0 33.25V42h8.75l11.107-11.107 9.637 9.637c2.217 2.217 5.203 1.4 6.603 0l4.433-4.433c1.82-1.82 1.82-4.783 0-6.603l-9.637-9.637zM14.42 18.83L4.76 9.193 9.17 4.76l2.963 2.963L9.38 10.5l3.29 3.29 2.777-2.777 3.383 3.383-4.41 4.433zm18.387 18.41l-9.637-9.637 4.433-4.433 3.383 3.383-2.777 2.777 3.29 3.29 2.777-2.777 2.963 2.963-4.433 4.433zm8.517-27.813c.216-.216.388-.472.505-.755s.177-.585.177-.89-.06-.608-.177-.89-.289-.539-.505-.755l-5.46-5.46C34.767-.42 33.25 0 32.573.677l-4.27 4.27 8.75 8.75 4.27-4.27z" fill="#fff"/></svg>