<svg xmlns="http://www.w3.org/2000/svg" width="48" height="44" fill="none" xmlns:v="https://vecta.io/nano"><path d="M28.16 29.401l4.949-4.949L47.1 38.443l-4.949 4.949L28.16 29.401zm8.673-12.068A8.18 8.18 0 0 0 45 9.167c0-1.353-.373-2.613-.957-3.733l-6.3 6.3-3.477-3.477 6.3-6.3C39.447 1.373 38.187 1 36.833 1a8.18 8.18 0 0 0-8.167 8.167c0 .957.187 1.867.49 2.707L24.84 16.19l-4.153-4.153 1.657-1.657-3.29-3.29L24 2.143a7 7 0 0 0-9.893 0l-8.26 8.26 3.29 3.29h-6.58L.9 15.35l8.26 8.26 1.657-1.657V15.35l3.29 3.29 1.657-1.657 4.153 4.153-17.29 17.29 4.947 4.947 26.553-26.53c.84.303 1.75.49 2.707.49z" fill="#434343"/></svg>