<svg xmlns="http://www.w3.org/2000/svg" width="52" height="38" fill="none" xmlns:v="https://vecta.io/nano"><path d="M27.167 5.333A4.65 4.65 0 0 1 31.833.667H40c2.567 0 4.667 2.1 4.667 4.667v5.04C41.96 11.33 40 13.897 40 16.93v4.737H27.167V5.333zM12 16.907v4.76h12.833V5.333A4.65 4.65 0 0 0 20.167.667H12c-2.567 0-4.667 2.1-4.667 4.667v5.017C10.04 11.307 12 13.897 12 16.907zm34.207-4.503c-2.287.373-3.873 2.543-3.873 4.877V24H9.667v-7c0-1.238-.492-2.425-1.367-3.3S6.238 12.333 5 12.333s-2.425.492-3.3 1.367S.333 15.762.333 17v11.667c0 2.567 2.1 4.667 4.667 4.667V38h4.667v-4.667h32.667V38H47v-4.667c2.567 0 4.667-2.1 4.667-4.667V17c0-2.823-2.543-5.087-5.46-4.597z" fill="#434343"/></svg>