<svg xmlns="http://www.w3.org/2000/svg" width="45" height="48" fill="none" xmlns:v="https://vecta.io/nano"><path d="M40.312.667H17.023a4.69 4.69 0 0 0-4.69 4.69V18.51L1.362 29.341c-.329.325-.553.741-.646 1.194s-.048.923.128 1.351.474.794.858 1.051.836.396 1.298.396V45c0 .619.246 1.212.683 1.65s1.031.683 1.65.683h37.333c.619 0 1.212-.246 1.65-.683S45 45.619 45 45V5.354c0-2.59-2.095-4.688-4.688-4.688zM21.485 31.259v11.408H7.667V29.675l6.97-6.881 6.848 7.007v1.458zM26.333 17h-4.667v-4.667h4.667V17zm9.333 18.667H31V31h4.667v4.667zm0-9.333H31v-4.667h4.667v4.667zm0-9.333H31v-4.667h4.667V17z" fill="#434343"/></svg>