<svg xmlns="http://www.w3.org/2000/svg" width="52" height="52" fill="none" xmlns:v="https://vecta.io/nano"><path fill-rule="evenodd" d="M26 .333C11.825.333.333 11.825.333 26S11.825 51.667 26 51.667 51.667 40.175 51.667 26 40.175.333 26 .333zM37.125 21.66c.205-.234.361-.507.459-.802a2.33 2.33 0 0 0-.142-1.806 2.33 2.33 0 0 0-1.392-1.16c-.298-.091-.61-.121-.92-.089s-.609.125-.882.275-.513.352-.706.596L23.508 30.711l-5.192-5.194c-.44-.425-1.03-.66-1.641-.655s-1.197.251-1.63.683-.678 1.018-.683 1.63.23 1.201.655 1.641l7 7c.229.229.504.408.806.525s.625.17.949.155.641-.097.931-.241.547-.347.755-.596l11.667-14z" fill="#fff"/></svg>