<svg xmlns="http://www.w3.org/2000/svg" viewBox="0 0 32 32" xmlns:v="https://vecta.io/nano"><path d="M15.251.279L.307 15.223a1.02 1.02 0 0 0-.299.731c0 .008-.004.014-.004.022v15a1 1 0 0 0 1 1c.008 0 .014-.004.022-.004a1.02 1.02 0 0 0 .731-.299l14.246-14.246L30.28 31.704c.401.401 1.051.401 1.452 0 .238-.238.317-.561.273-.87V16.122c.044-.309-.035-.632-.273-.87L16.76.28c-.208-.208-.482-.303-.755-.295a1.02 1.02 0 0 0-.754.294zm14.753 16.149v12.096L16.76 15.28c-.208-.208-.482-.303-.755-.295-.272-.008-.546.087-.754.295L2.004 28.526V16.425L16.003 2.427l14.001 14.001z" fill="white" fill-rule="evenodd"/></svg>